<svg version="1.1" viewBox="0 0 376 80" xmlns="http://www.w3.org/2000/svg">
  <g transform="translate(-65.855 -65.296)">
    <g transform="matrix(.0033161 0 0 .0033161 65.854 65.296)" fill-rule="evenodd">
      <path
        d="m43223 82.864c-392.04 0-728.08 140.03-1008.1 420.05-280.04 280.03-420.05 621.67-420.05 1024.9 0 403.25 140.02 744.91 420.05 1024.9 280.03 280.02 616.07 420.03 1008.1 420.03 403.25 0 744.88-140 1024.9-420.03 280.03-280.03 420.05-621.69 420.05-1024.9 0-403.25-140.02-744.88-420.05-1024.9-280.04-280.02-621.66-420.05-1024.9-420.05zm68718 0c-392.04 0-728.08 140.03-1008.1 420.05-280.03 280.03-420.05 621.67-420.05 1024.9 0 403.25 140.02 744.91 420.05 1024.9 280.04 280.02 616.06 420.03 1008.1 420.03 403.25 0 744.88-140 1024.9-420.03 280.03-280.03 420.05-621.69 420.05-1024.9 0-403.25-140.02-744.88-420.05-1024.9-280.04-280.02-621.67-420.05-1024.9-420.05zm-26306 1344.4v3914.7c-672.08-1052.9-1646.6-1579.4-2923.5-1579.4-1277 0-2329.9 448.05-3158.8 1344.1-828.9 884.91-1243.4 2027.5-1243.4 3427.7s414.46 2554 1243.4 3461.2c840.1 896.12 1887.5 1344.1 3142 1344.1 1254.6 0 2234.7-565.69 2940.4-1697v1562.6h2352.3v-11778zm15350 0v11778h2369.1v-11778zm4889.6 0v11778h2369.1v-11778zm-74165 50.216v11728h2369.1v-4670.9h1949.1c772.89 0 1445-106.42 2016.3-319.25 582.47-224.02 1024.9-520.85 1327.4-890.5 593.67-705.69 890.5-1517.7 890.5-2436.3 0-918.5-369.65-1713.8-1108.9-2385.8-728.1-683.29-1769.7-1024.9-3125.1-1024.9h-4318.1zm2369.1 1814.6h1949.1c593.67 0 1047.3 156.83 1361 470.48 313.64 302.44 470.45 716.87 470.45 1243.3 0 526.46-156.8 946.52-470.45 1260.2-313.64 302.44-767.3 453.64-1361 453.64h-1949.1v-3427.7zm16084 470.48c-1131.3 0-2038.6 274.42-2722 823.28-683.29 548.87-1024.9 1226.6-1024.9 2033.1 0 604.88 184.83 1097.7 554.48 1478.6 369.64 369.65 812.1 627.28 1327.4 772.89 526.46 145.62 1052.9 268.83 1579.4 369.64 526.47 100.81 974.53 246.45 1344.1 436.86 369.64 179.22 554.45 431.25 554.45 756.09 0 313.65-134.41 571.29-403.25 772.92-268.84 190.42-621.65 285.61-1058.5 285.61-907.32 0-1405.8-392.03-1495.4-1176.1h-2419.5c67.208 974.52 453.65 1725.1 1159.3 2251.5 705.69 515.27 1607.4 772.89 2705.1 772.89 1108.9 0 2016.3-263.25 2722-789.72 716.89-526.46 1075.3-1209.7 1075.3-2049.8 0-638.48-184.8-1148.1-554.45-1529-369.65-392.04-817.71-660.88-1344.1-806.5-515.26-156.82-1036.2-285.64-1562.6-386.44-526.46-100.81-974.52-240.83-1344.1-420.05-369.64-179.21-554.45-425.63-554.45-739.28s123.21-560.07 369.64-739.28c246.43-179.22 593.67-268.84 1041.7-268.84 896.11 0 1377.8 392.04 1445 1176.1h2419.5c-44.805-929.72-408.86-1663.4-1092.1-2201.1-683.29-548.86-1590.6-823.28-2722-823.28zm9676.6 0c-1277 0-2329.9 448.04-3158.8 1344.1-828.91 884.91-1243.4 2027.5-1243.4 3427.7s414.46 2554 1243.4 3461.2c840.1 896.12 1887.5 1344.1 3142 1344.1 1254.6 0 2234.7-565.67 2940.4-1697v1562.6h2352.3v-9308.3h-2352.3v1445c-672.08-1052.9-1646.6-1579.4-2923.5-1579.4zm13063 0c-1333 0-2296.3 509.66-2890 1529v-1394.6h-2369.1v9308.3h2369.1v-5141.4c0-728.08 184.83-1282.6 554.48-1663.4 380.85-392.04 890.52-588.05 1529-588.05s1142.5 196.01 1512.1 588.05c369.65 380.85 554.48 935.33 554.48 1663.4v5141.4h2352.3v-5477.5c0-1243.4-336.03-2212.2-1008.1-2906.8-672.09-705.69-1540.2-1058.5-2604.3-1058.5zm21563 0c-1355.4 0-2464.3 436.85-3326.8 1310.6-851.3 862.51-1277 2016.3-1277 3461.2 0 1445 425.64 2609.9 1277 3494.8 851.31 873.7 1954.6 1310.6 3310 1310.6 1097.7 0 2033.1-280.04 2806-840.12 772.89-560.07 1293.7-1282.6 1562.6-2167.5h-2554c-392.04 672.08-996.91 1008.1-1814.6 1008.1-604.88 0-1103.3-184.8-1495.4-554.45-392.06-369.65-616.09-856.9-672.08-1461.8h6788.1c44.81-280.02 67.221-582.49 67.221-907.33 0-1411.4-436.85-2537.1-1310.6-3377.2-873.7-851.3-1993.8-1277-3360.4-1277zm-52418 134.39v9308.3h2369.1v-9308.3zm68718 0v9308.3h2369.1v-9308.3zm-16283 1865.1c593.67 0 1097.7 184.8 1512.3 554.45 425.66 369.65 655.26 862.53 688.86 1478.6h-4402.1c78.408-616.09 313.65-1109 705.69-1478.6 403.25-369.65 901.71-554.45 1495.4-554.45zm-34190 50.391c660.88 0 1237.8 246.42 1730.6 739.28 492.86 481.66 739.28 1148.2 739.28 1999.4 0 851.3-246.42 1523.4-739.28 2016.3-492.86 481.65-1069.7 722.48-1730.6 722.48-649.69 0-1221-246.42-1713.8-739.28-492.86-492.86-739.3-1164.9-739.3-2016.3s240.84-1517.7 722.5-1999.4c492.86-481.66 1069.7-722.5 1730.6-722.5zm22873 0c660.88 0 1237.8 246.43 1730.6 739.28 492.86 481.66 739.28 1148.2 739.28 1999.4 0 851.29-246.42 1523.4-739.28 2016.3-492.87 481.66-1069.7 722.48-1730.6 722.48-649.69 0-1221-246.44-1713.8-739.28-492.86-492.84-739.3-1164.9-739.3-2016.3s240.84-1517.7 722.5-1999.4c492.87-481.66 1069.7-722.5 1730.6-722.5z"
        fill="#0985e3" stroke-width="12.766"
        style="font-feature-settings:normal;font-variant-caps:normal;font-variant-ligatures:normal;font-variant-numeric:normal" />
      <path
        d="m86693 22333v-4948h468.07v4948zm-2661-307.84q568.38 0 982.95-407.9 414.58-407.9 414.58-1110 0-708.79-394.52-1110-394.52-407.9-962.88-407.9t-949.51 401.21-381.15 1116.7q0 715.5 361.09 1116.7 361.09 401.21 929.49 401.21zm0 374.46q-782.37 0-1277.2-521.58-488.14-521.58-488.14-1364.1 0-849.2 521.58-1370.8 521.58-528.24 1303.9-528.24 782.37 0 1303.9 528.24 521.58 521.58 521.58 1364.1 0 835.84-548.31 1364.1-548.31 528.24-1337.3 528.24zm-4192.4-374.46q568.38 0 982.95-407.9 414.58-407.9 414.58-1110 0-708.79-394.52-1110-394.52-407.9-962.88-407.9-568.38 0-949.51 401.21-381.15 401.21-381.15 1116.7 0 715.5 361.09 1116.7 361.09 401.21 929.44 401.21zm0 374.46q-782.37 0-1277.2-521.58-488.14-521.58-488.14-1364.1 0-849.2 521.58-1370.8 521.58-528.24 1303.9-528.24 782.37 0 1303.9 528.24 521.58 521.58 521.58 1364.1 0 835.84-548.31 1364.1-548.31 528.24-1337.3 528.24zm-5138.1-5015.1v1892.4q367.77-661.99 1210.3-661.99 608.48 0 1016.4 401.21 407.89 394.52 407.89 1143.4v2173.2h-461.39v-2086.3q0-601.82-294.21-916.07-287.53-314.28-795.74-314.28-501.51 0-795.74 314.28-287.53 314.28-287.53 916.07v2086.3h-468.07v-4948zm-4223.3 4493.5q-488.14-521.58-488.14-1370.8t488.14-1370.8 1270.5-521.58q1283.9 0 1631.6 1150.1h-501.51q-113.68-367.78-407.9-568.38-287.53-207.29-722.16-207.29-568.38 0-922.78 394.52-354.4 387.83-354.4 1123.4 0 728.86 354.4 1123.4 354.41 394.52 922.78 394.52 434.64 0 722.16-200.6 294.22-207.29 407.9-575.04h501.51q-173.86 521.58-581.75 835.84-407.9 314.28-1049.8 314.28-782.37 0-1270.5-521.58zm-3733.1-2941.8q0 274.16 140.42 448.02 147.11 173.86 374.46 260.79 227.35 80.24 501.51 140.42 274.16 60.182 548.31 133.74 274.16 73.557 501.51 193.92 227.35 113.68 367.77 354.4 147.11 240.72 147.11 595.12 0 528.24-394.52 922.78t-1083.3 394.52q-682.06 0-1110-307.59-427.95-307.59-427.95-829.18h494.8q26.747 320.97 274.16 534.95 247.41 207.29 735.57 207.29 494.8 0 782.37-254.1 294.22-254.1 294.22-628.55 0-381.15-267.47-568.38-267.47-193.92-648.62-267.47-374.46-73.557-755.6-167.17-374.46-100.3-641.92-381.15-267.47-280.84-267.47-815.81t394.52-882.64q401.21-347.71 1049.8-347.71 655.33 0 1029.8 300.91 374.46 300.91 454.7 802.4h-528.24q-26.747-280.84-280.85-488.14-254.09-213.98-695.43-213.98-441.33 0-715.5 220.67-274.16 220.67-274.16 641.92zm-4869.9 3463.4q-782.37 0-1270.5-521.58-488.14-521.58-488.14-1370.8 0-855.91 494.85-1370.8 501.51-521.58 1290.5-521.58 795.74 0 1263.8 488.14t468.07 1210.3q0 193.92-26.747 361.09h-3009.1q26.747 628.55 381.15 989.66 354.4 361.09 896.05 361.09 421.27 0 715.5-193.92 300.91-193.92 414.58-508.22h501.51q-180.54 468.07-588.46 775.67-407.9 300.91-1043.2 300.91zm1277.2-2093q0-601.82-367.78-956.22-361.09-361.09-902.71-361.09-534.95 0-896.05 354.4-354.4 347.71-387.83 962.88zm-5697.8 2093q-762.3 0-1263.8-541.66-501.51-541.65-501.51-1377.5 0-842.54 494.8-1350.8 501.51-514.88 1270.5-514.88 494.8 0 869.27 240.72 374.46 240.72 555.02 621.89v-795.74h468.08v3778q0 742.23-494.85 1203.6-488.15 461.39-1196.9 461.39-708.79 0-1196.9-347.71-488.14-347.71-561.68-862.61h461.39q86.932 341.03 441.33 575.04 354.4 234.04 869.27 234.04t862.61-341.03q347.71-334.34 347.71-922.78v-929.49q-180.54 381.15-555.02 628.55-374.46 240.72-869.27 240.72zm1023.1-809.1q401.21-414.58 401.21-1083.3 0-668.7-401.21-1076.6-394.52-414.58-956.22-414.58-561.68 0-956.22 394.52-394.53 394.52-394.53 1069.9 0 668.7 394.53 1096.6 401.21 421.27 956.22 421.27 561.68 0 956.22-407.9zm-4427.5 0.434q401.21-414.58 401.21-1083.3 0-668.7-401.21-1076.6-394.52-414.58-956.22-414.58-561.68 0-956.22 394.52-394.53 394.52-394.53 1069.9 0 668.7 394.53 1096.6 401.21 421.27 956.22 421.27 561.68 0 956.22-407.9zm-1023.1 809.1q-762.3 0-1263.8-541.65-501.51-541.66-501.51-1377.5 0-842.54 494.8-1350.8 501.51-514.88 1270.5-514.88 494.85 0 869.27 240.72 374.46 240.72 555.02 621.89v-795.74h468.08v3651h-468.08v-802.4q-180.54 381.15-555.02 628.55-374.45 240.72-869.27 240.72zm-3004.9-3718.1h468.08v3651h-468.08v-595.12q-367.78 661.99-1210.3 661.99-608.48 0-1016.4-394.52-407.89-401.21-407.89-1150.1v-2173.2h461.39v2086.3q0 601.82 287.53 916.08 294.22 314.28 795.74 314.28 508.22 0 795.74-314.28 294.22-314.28 294.22-916.08zm-5497.2 3717.7q-762.3 0-1263.8-541.66-501.51-541.65-501.51-1377.5 0-842.54 494.8-1350.8 501.51-514.88 1270.5-514.88 494.8 0 869.27 240.72 374.46 240.72 555.02 621.89v-795.74h468.07v3778q0 742.23-494.8 1203.6-488.14 461.39-1196.9 461.39-708.79 0-1196.9-347.71-488.14-347.71-561.68-862.61h461.39q86.923 341.03 441.33 575.04 354.4 234.04 869.27 234.04 514.88 0 862.61-341.03 347.71-334.34 347.71-922.78v-929.49q-180.54 381.15-555.02 628.55-374.46 240.72-869.27 240.72zm1023.1-809.1q401.21-414.58 401.21-1083.3 0-668.7-401.21-1076.6-394.52-414.58-956.22-414.58-561.68 0-956.22 394.52-394.53 394.52-394.53 1069.9 0 668.7 394.53 1096.6 401.2 421.27 956.22 421.27 561.68 0 956.22-407.9zm-6161.2-2908.6v595.12q367.78-661.99 1210.3-661.99 608.48 0 1016.4 401.21 407.9 394.52 407.9 1143.4v2173.2h-461.39v-2086.3q0-601.82-294.22-916.07-287.53-314.28-795.74-314.28-501.51 0-795.74 314.28-287.53 314.28-287.53 916.07v2086.3h-468.08v-3651zm-2341.1 2909q401.21-414.58 401.21-1083.3 0-668.7-401.21-1076.6-394.52-414.58-956.22-414.58-561.68 0-956.22 394.52-394.52 394.52-394.52 1069.9 0 668.7 394.52 1096.6 401.21 421.27 956.22 421.27 561.68 0 956.22-407.9zm-1023.1 809.1q-762.3 0-1263.8-541.65-501.51-541.66-501.51-1377.5 0-842.54 494.8-1350.8 501.51-514.88 1270.5-514.88 494.8 0 869.27 240.72 374.46 240.72 555.02 621.89v-795.74h468.07v3651h-468.07v-802.4q-180.54 381.15-555.02 628.55-374.46 240.72-869.27 240.72zm-4312.9-4681.2h468.07v4252.8h1678.4v361.09h-2146.4z"
        fill="#00449f" stroke-width="48.25"
        style="font-feature-settings:normal;font-variant-caps:normal;font-variant-ligatures:normal;font-variant-numeric:normal" />
      <g stroke-width="12.766">
        <path
          d="m20995 0.012834c-39.776-0.30511-78.811 1.0085-116.89 3.9146l-7604.7 580.51c-812.31 62.007-1416.4 765.88-1354.3 1578.1l414.24 5426.7c62.007 812.31 765.86 1416.4 1578.1 1354.3l651.82-49.767 264.03 1607.1 2536.2-1820.8 2012.2-153.59c812.31-62.007 1835.9-1219.3 2039.1-2008.1l1107.3-4296.4c397.1-1540.9-718.43-2215.8-1527.2-2221.9z"
          fill="#598f43" />
        <path
          d="m2055.4 5798.8c-1042.8 0-2571.6 968.39-1882.3 2991.1l1831.8 5375.8c336.35 987.07 1755.5 2364.4 2798.3 2364.4h2583.2l3414.4 2076.9 180.37-2076.9h836.77c1042.8 0 1882.3-839.5 1882.3-1882.3v-6966.5c0-1042.8-839.5-1882.3-1882.3-1882.3h-9762.5z"
          fill="#e36709" />
        <path
          d="m16058 12516c-828.13 0.05-1550.2 602.03-1678.5 1446.9l-945.96 6228.1c-141.6 932.26 494.94 1796.8 1427.2 1938.4l748.06 113.62-120.75 1881.2 3334.5-1393 2309.4 350.75c932.26 141.6 2388-897.02 2822.7-1733.7l2367.6-4557.2c890.84-1714.7-344.39-2788-1276.6-2929.5l-8727.7-1325.6c-87.399-13.275-174.22-19.703-259.88-19.698z"
          fill="#79438f" />
        <path
          d="m17202 14493c-532.33-3.988-1246.4 400.2-1059.3 1405.3l539.39 2897.8c99.043 532.07 725.03 1345.4 1260.6 1423.3l1326.6 192.88 1598.6 1321.7 247.74-1053.2 429.75 62.484c535.58 77.87 1029.4-290.62 1107.3-826.2l520.21-3577.9c77.87-535.58-290.59-1029.4-826.18-1107.3l-5014-729c-41.842-6.083-85.638-9.336-130.75-9.674zm-12363-6911.1c-634.62 0-1145.5 510.88-1145.5 1145.5v4239.6c0 634.62 510.88 1145.5 1145.5 1145.5h509.25l109.78 1263.9 2077.9-1263.9h1572c634.62 0 1498.2-838.19 1702.9-1438.9l1114.8-3271.5c419.45-1230.9-510.91-1820.3-1145.5-1820.3h-5941.2zm14299-6076.4c-15.405 0.171-30.895 0.7391-46.452 1.6956l-4660.2 286.56c-497.8 30.61-1199.2 537.75-810.77 1483l1032.3 2512.5c189.54 461.32 907.38 1077.1 1405.2 1046.5l1233.1-75.822 1690.9 891.21 25.134-996.74 399.46-24.559c497.8-30.61 873.91-456.01 843.31-953.81l-204.51-3325.5c-29.654-482.25-429.8-850.27-907.36-844.97z"
          fill="#fff" />
      </g>
    </g>
  </g>
</svg>